<svg width="109" height="141" viewBox="0 0 109 141" fill="none" xmlns="http://www.w3.org/2000/svg">
<g filter="url(#filter0_d)">
<g clip-path="url(#clip0)">
<path d="M19.9585 14.9798C22.5415 13.9623 24.7881 13.1333 26.7834 12.5355C29.3635 11.7634 31.5835 11.2584 33.2347 10.9249C31.6107 8.84112 29.4546 7.23352 26.9935 6.27134C24.5323 5.30917 21.8571 5.02802 19.2495 5.45749C21.1658 4.42651 23.1803 3.58928 25.263 2.95826C27.7479 2.21617 30.3103 1.76316 32.8992 1.60823C35.1741 1.46801 39.9136 1.22074 45.2645 3.05964C48.275 4.09514 48.9176 4.9099 51.8533 5.47455C54.0819 5.89533 56.3646 5.94654 58.6099 5.62613L61.719 1C64.5626 6.2372 69.3249 11.9386 76.4161 15.6894C85.0201 20.2369 90.4762 20.0654 93.6118 19.7793C93.3549 19.819 91.225 21.2458 90.4032 22.3192C89.6569 23.2906 88.8519 24.2154 87.9927 25.0885C88.3948 28.0817 88.1258 31.1269 87.205 34.0034C85.2808 29.383 81.5906 26.2149 77.5422 25.9885C76.5895 25.9354 75.0776 26.015 73.2766 26.8326C72.4453 21.873 68.0357 19.0119 64.5247 19.8361C63.1844 20.1506 61.5711 21.3519 60.554 22.9559C60.0229 23.7987 59.662 24.7372 59.4914 25.7185C59.3966 25.0553 58.8838 21.9829 56.1738 20.0682C54.6448 18.9882 53.1216 18.7911 52.0978 18.6718C49.4314 18.362 44.8863 18.7741 41.489 22.2719C36.9713 26.9207 38.2178 33.1622 38.4074 34.0252C39.378 38.4827 42.4028 41.09 43.509 41.9275C47.0162 44.5802 50.7983 44.7696 56.6183 45.0539C61.2479 45.2841 64.665 44.7327 65.6726 44.5584C69.0353 43.9759 72.3067 42.9541 75.4028 41.5191C73.0132 43.3899 70.5 45.0972 67.8803 46.6294C65.4118 48.0737 62.854 49.3597 60.2222 50.4796C61.364 51.2774 62.5522 52.0066 63.7806 52.6633C65.1077 53.3739 68.9504 55.316 74.3895 56.3099C76.8966 56.7693 81.6759 57.5983 87.7017 56.3771C91.1469 55.6768 94.4557 54.4226 97.4991 52.6633C93.6988 56.9292 88.9889 60.2882 83.7167 62.4925C86.5904 63.8983 89.2626 65.6826 91.662 67.798C92.0102 68.1049 92.346 68.4141 92.6696 68.7255C93.3094 69.328 94.1625 70.1636 95.1208 71.1944C95.9844 72.1238 96.6877 72.9461 97.2138 73.5837C97.2138 73.5837 105.002 83.4972 105.002 96.6528C104.894 103.728 102.744 108.599 101.353 111.148C99.5523 114.445 97.4821 116.69 95.136 119.23C92.7426 121.822 90.0525 124.856 85.8552 127.408C85.3585 127.714 84.6115 128.16 83.6836 128.658C80.9678 130.114 69.3628 136.332 56.2449 133.051C51.5329 131.87 48.0778 129.83 45.8986 128.538C42.6771 126.632 39.6994 124.342 37.0311 121.717C37.6851 122.01 38.6889 122.447 39.9297 122.93C47.1394 125.737 56.0117 129.189 65.066 126.577C72.5278 124.425 76.9876 119.055 78.4758 117.069C80.0503 114.97 84.4476 108.457 83.784 99.4949C83.2798 92.6832 80.0512 86.9211 76.8919 83.8629C76.6748 83.6536 76.4293 83.4271 76.3658 83.3693C75.1582 82.2751 72.6178 80.2562 66.7381 77.1686C58.5435 72.8675 54.1017 71.4199 48.9565 69.6937C40.7593 66.952 32.3951 64.7369 23.915 63.0619C23.8753 65.7991 24.3846 68.5164 25.4131 71.0536C26.4415 73.5907 27.9682 75.8961 29.9029 77.8337C26.2393 76.3634 19.9614 73.2531 14.6996 66.825C9.53075 60.5115 7.73734 53.965 7.37903 51.8107C6.37427 45.7739 8.23214 40.2913 8.95538 37.884C9.4634 36.1979 10.0844 34.5479 10.8142 32.9452C10.0486 33.1688 9.31793 33.4982 8.64352 33.9239C5.28134 36.0536 4.48037 39.9379 4.29364 41.0274C3.73942 37.6029 3.96624 34.0975 4.95716 30.7728C6.58185 25.3632 9.77247 22.1061 11.1621 20.721C13.6718 18.2277 16.6653 16.2739 19.9585 14.9798Z" fill="#4B73CD"/>
</g>
</g>
<defs>
<filter id="filter0_d" x="0" y="0" width="109" height="141" filterUnits="userSpaceOnUse" color-interpolation-filters="sRGB">
<feFlood flood-opacity="0" result="BackgroundImageFix"/>
<feColorMatrix in="SourceAlpha" type="matrix" values="0 0 0 0 0 0 0 0 0 0 0 0 0 0 0 0 0 0 127 0"/>
<feOffset dy="3"/>
<feGaussianBlur stdDeviation="2"/>
<feColorMatrix type="matrix" values="0 0 0 0 0 0 0 0 0 0 0 0 0 0 0 0 0 0 0.25 0"/>
<feBlend mode="normal" in2="BackgroundImageFix" result="effect1_dropShadow"/>
<feBlend mode="normal" in="SourceGraphic" in2="effect1_dropShadow" result="shape"/>
</filter>
<clipPath id="clip0">
<rect x="4" y="1" width="101" height="133" fill="white"/>
</clipPath>
</defs>
</svg>
